<svg width="849" height="579" viewBox="0 0 849 579" fill="none" xmlns="http://www.w3.org/2000/svg">
<path d="M148 311.2C142 311.2 134.8 310.2 126.4 308.2C118 306.6 110.4 303.6 103.6 299.2C97.2 295.2 94 289.4 94 281.8C94 270.6 97.2 256.8 103.6 240.4C110 223.6 118.2 205.8 128.2 187C138.2 168.2 148.8 149.4 160 130.6C171.6 111.8 182.6 94.6 193 79C203.4 63 212 50 218.8 40C214.4 40 206.2 41 194.2 43C182.6 45 169.4 47.6 154.6 50.8C139.8 54 125.2 57.8 110.8 62.2C96.8 66.2 85 70.6 75.4 75.4C65.8 79.8 60.6 84.2 59.8 88.6L64.6 90.4C67.4 88.8 70.2 88 73 88C76.2 87.6 79.4 87.4 82.6 87.4L91 84.4L90.4 85.6C81.6 91.2 73.6 97.6 66.4 104.8C59.2 111.6 52 118.8 44.8 126.4L41.2 127.6L38.8 131.8L32.2 133L31.6 134.2L32.2 145L11.8 134.8C10.2 130.4 7.8 126.4 4.6 122.8C1.8 119.2 0.400002 115 0.400002 110.2C15.6 91.4 33.8 77.2 55 67.6C76.2 57.6 97.2 47.6 118 37.6L117.4 38.2C118.2 38.6 119.4 39 121 39.4C122.6 39.8 123.8 40 124.6 40C127.8 40 131 39.4 134.2 38.2C137.4 36.6 140.6 35.4 143.8 34.6V35.8C147.4 35 151 34.2 154.6 33.4C158.2 32.2 162 30.8 166 29.2V30.4L175 27.4V26.8L178 27.4L177.4 26.8C177.4 26 177.6 25.8 178 26.2C178.8 26.6 179.2 27 179.2 27.4L182.8 26.8L184 23.8L187.6 25L186.4 23.8L187.6 24.4L188.2 25H197.2L201.4 23.2L202.6 21.4L218.8 22L219.4 21.4L224.8 19C227.6 19 230.2 19 232.6 19C235.4 18.6 238.2 18.4 241 18.4C243.8 15.2 246.2 11.4 248.2 6.99999C250.6 2.59999 254.4 0.399988 259.6 0.399988C265.2 0.399988 270.2 1.59999 274.6 3.99999C279 6.39999 283.8 7.59998 289 7.59998C289.8 9.99999 293 12.4 298.6 14.8C304.2 16.8 310.4 18.6 317.2 20.2C324.4 21.4 331.2 22.4 337.6 23.2C344 23.6 348.6 23.8 351.4 23.8L377.2 31.6L379 31C382.6 31 387.6 33.4 394 38.2C400.4 43 406.8 48.2 413.2 53.8C419.6 59.4 424 63.6 426.4 66.4C427.2 69.2 428 72.2 428.8 75.4C429.6 78.6 430.8 81.6 432.4 84.4C430.8 99.6 428 111 424 118.6C420 125.8 414.2 131 406.6 134.2C399 137.4 388.6 140.8 375.4 144.4L367.6 143.8V146.8H366.4L364 144.4L340 151.6V148C332.4 153.2 326.6 155.8 322.6 155.8C319 155.8 313.2 156.2 305.2 157L304.6 155.8C303 157.4 301.4 158.4 299.8 158.8C298.2 158.8 296.4 158.8 294.4 158.8C288 158.8 282.2 160.4 277 163.6C271.8 166.4 266 167.6 259.6 167.2V170.2L256.6 169.6L254.2 167.2L253 169.6V170.2L251.8 169.6C251 169.2 250.2 169 249.4 169C248.6 168.6 247.8 168.4 247 168.4C245 168.4 243 168.8 241 169.6C239 170 237 170.2 235 170.2L235.6 166.6C235.2 167 231 167.4 223 167.8C215 168.2 206.6 169 197.8 170.2C189.4 171.4 183.4 173.6 179.8 176.8C179.4 180 178.4 184.4 176.8 190C175.2 195.2 172.2 197.8 167.8 197.8V193.6L164.2 188.8H163.6C162 188.8 160.6 189.6 159.4 191.2C158.6 192.4 158.6 194 159.4 196C158.2 197.6 157 199.2 155.8 200.8C154.6 202 154 203.6 154 205.6L157 211L161.8 209.8L164.2 211C164.2 212.2 161.8 215.4 157 220.6C152.2 225.8 147.2 232.2 142 239.8C136.8 247 133.6 254.6 132.4 262.6L125.2 266.8L130 269.8L132.4 274.6L128.2 282.4L130.6 284.8C131 286.8 131.4 288.8 131.8 290.8C132.6 293.2 133.6 295.2 134.8 296.8L137.8 298C141.8 298 146.4 296.6 151.6 293.8C157.2 291 162.6 287.6 167.8 283.6C173.4 280 177.8 277.2 181 275.2L183.4 278.2C183 279.8 180.8 282.8 176.8 287.2C173.2 292 169.2 296.6 164.8 301C160.4 305.4 157.4 308.8 155.8 311.2H148ZM190.6 158.8C216.6 153.2 242.4 148 268 143.2C293.6 138 318.8 130.8 343.6 121.6L344.2 121C351.4 118.2 359 115 367 111.4C375 107.4 382 102.4 388 96.4C394 90.4 397 83.2 397 74.8C395.4 71.2 393.2 67.4 390.4 63.4C387.6 59 383.8 56.6 379 56.2L380.2 56.8C372.2 54 364.4 50.4 356.8 46C349.6 41.6 341.6 39 332.8 38.2V38.8H331C328.6 37.6 326.4 37 324.4 37C322.8 37 321.2 37.2 319.6 37.6C318 38 316.2 38.2 314.2 38.2L309.4 34.6H302.2C297.8 34.6 293.4 34.6 289 34.6C284.6 34.2 280.2 33.8 275.8 33.4C270.2 38.6 263.4 45.4 255.4 53.8C247.8 62.2 240.6 70.8 233.8 79.6C227.4 88.4 222.6 96.4 219.4 103.6V109.6C212.6 112.4 207.2 118.6 203.2 128.2C199.6 137.4 195.6 145 191.2 151L190 155.2L191.8 157.6L190.6 158.8ZM97 84.4L98.2 80.2L100 81.4L101.2 83.2L100 84.4H97ZM187.6 272.8L183.4 271.6C183.4 269.6 184.6 267.8 187 266.2C189.8 264.2 192 263 193.6 262.6L195.4 263.8L187.6 272.8ZM432.367 319.6L420.367 305.8C418.367 297.8 416.167 289.6 413.767 281.2C411.767 273.2 410.367 265 409.567 256.6L412.567 245.2L411.367 244.6C412.967 240.2 414.567 235.8 416.167 231.4C418.167 226.6 419.167 222 419.167 217.6C417.167 219.6 414.967 221.6 412.567 223.6C410.567 225.6 408.967 228 407.767 230.8C406.167 232.4 404.767 234.4 403.567 236.8C402.367 239.2 400.767 241.2 398.767 242.8L398.167 248.2C392.567 249.4 386.967 252.2 381.367 256.6C376.167 260.6 370.967 264.6 365.767 268.6C360.567 272.2 354.967 274 348.967 274C346.167 274 342.567 273.8 338.167 273.4C334.167 272.6 331.167 271.4 329.167 269.8C323.967 268.6 320.167 267.2 317.767 265.6C315.767 263.6 314.167 260 312.967 254.8L315.367 247L313.567 242.2C315.567 235.8 316.967 231.2 317.767 228.4C318.967 225.6 320.567 223.2 322.567 221.2C324.967 219.2 328.767 216.2 333.967 212.2C334.367 210.2 335.367 208.8 336.967 208C338.967 206.8 340.767 206 342.367 205.6L342.967 202.6L348.967 195.4L350.767 196.6L354.367 191.2C357.167 189.2 359.967 188 362.767 187.6C365.967 186.8 368.967 185.6 371.767 184C372.567 179.6 375.167 177 379.567 176.2C384.367 175 387.167 172.8 387.967 169.6H390.367L400.567 163L404.167 164.8L412.567 159.4C414.967 159.4 417.167 159.2 419.167 158.8C421.567 158.4 423.767 158.2 425.767 158.2L428.167 159.4C420.167 162.2 410.967 166.8 400.567 173.2C390.167 179.2 379.967 186.4 369.967 194.8C360.367 202.8 352.367 211.6 345.967 221.2C339.567 230.8 336.367 240.4 336.367 250C336.367 257.6 340.367 261.4 348.367 261.4C355.567 261.4 362.967 259.2 370.567 254.8C378.567 250.4 385.767 245 392.167 238.6C398.567 232.2 403.167 226 405.967 220L416.167 211.6C416.967 209.6 417.967 208.2 419.167 207.4C420.367 206.6 421.167 205.2 421.567 203.2C424.367 202.8 426.367 200.4 427.567 196C428.767 191.6 430.167 186.8 431.767 181.6C433.367 176 435.567 171.2 438.367 167.2C441.167 163.2 445.367 161.2 450.967 161.2C455.367 161.2 460.367 163.2 465.967 167.2C471.567 170.8 474.367 175.2 474.367 180.4C474.367 183.2 471.967 188.6 467.167 196.6C462.367 204.6 456.767 214 450.367 224.8C444.367 235.6 438.967 246.8 434.167 258.4C429.367 270 426.967 281 426.967 291.4C426.967 295.8 427.767 300.2 429.367 304.6C431.367 309 432.567 313.4 432.967 317.8L432.367 319.6ZM566.359 130C565.159 130 561.959 129.6 556.759 128.8C551.959 127.6 549.559 126.2 549.559 124.6C549.559 118.6 552.559 114.2 558.559 111.4C564.959 108.6 570.159 105.8 574.159 103H575.359C580.959 98.6 587.559 95.6 595.159 94C603.159 92.4 610.559 91.4 617.359 91L616.759 91.6C609.159 94 602.359 98.4 596.359 104.8C590.359 110.8 584.759 116.6 579.559 122.2C574.759 127.4 570.359 130 566.359 130ZM488.959 296.8L479.359 283C478.959 280.2 478.359 277.6 477.559 275.2C476.759 272.4 476.359 269.6 476.359 266.8C476.359 263.2 476.559 259.6 476.959 256C477.359 252.4 477.759 248.8 478.159 245.2L482.359 235L481.759 234.4C483.759 229.6 485.759 223.4 487.759 215.8C489.759 208.2 492.159 200.6 494.959 193C498.159 185 501.959 178.4 506.359 173.2C510.759 167.6 516.159 164.8 522.559 164.8C526.959 164.8 531.959 166.4 537.559 169.6C543.159 172.8 545.959 177 545.959 182.2C545.959 184.2 544.359 187.8 541.159 193C538.359 198.2 534.959 204 530.959 210.4C526.959 216.4 522.959 221.8 518.959 226.6C515.359 231 512.759 233.6 511.159 234.4C507.559 240.8 502.559 248.2 496.159 256.6C489.759 265 486.559 272.8 486.559 280C486.559 282.8 486.959 285.4 487.759 287.8C488.959 290.2 489.559 292.8 489.559 295.6L488.959 296.8ZM550.9 287.2C546.5 287.2 543.3 285.2 541.3 281.2C539.7 277.6 538.9 274 538.9 270.4C538.9 260 541.3 249.2 546.1 238C551.3 226.8 556.3 216.6 561.1 207.4C566.3 197.8 568.9 190.4 568.9 185.2C568.9 182.8 567.5 181.6 564.7 181.6C563.5 181.6 561.7 182 559.3 182.8V180.4L573.7 163.6V163C575.7 161 577.5 159 579.1 157C580.7 155 582.3 153.2 583.9 151.6L589.3 148C593.7 148.4 597.9 149.6 601.9 151.6C606.3 153.2 609.1 156.6 610.3 161.8L609.7 162.4C610.1 165.6 608.7 169 605.5 172.6C602.3 176.2 599.5 179 597.1 181C594.7 185.4 591.9 189.6 588.7 193.6C585.9 197.2 583.3 201.2 580.9 205.6V211.6L578.5 216.4H577.3C576.1 218.8 574.9 221.4 573.7 224.2C572.9 227 572.5 230 572.5 233.2L575.5 238C576.7 236.8 578.9 235 582.1 232.6C585.7 229.8 588.9 227 591.7 224.2C594.5 221.4 595.9 219.4 595.9 218.2L602.5 212.2C604.5 206.2 608.9 199.8 615.7 193C622.5 185.8 628.3 180.2 633.1 176.2L634.9 171.4C637.3 170.2 639.7 168.8 642.1 167.2C644.9 165.6 647.7 164.8 650.5 164.8C653.7 164.8 656.5 165.6 658.9 167.2C661.7 168.8 664.5 170.4 667.3 172C667.3 173.6 667.3 175.6 667.3 178C667.7 180 667.9 182 667.9 184C667.9 190.4 666.1 196.4 662.5 202C658.9 207.6 655.3 213.4 651.7 219.4C648.1 225.4 646.3 232.8 646.3 241.6C646.3 242.8 646.3 245.6 646.3 250C646.7 254 647.3 258 648.1 262C649.3 265.6 651.1 267.4 653.5 267.4L672.7 257.2H673.9C674.7 254.8 676.1 252.6 678.1 250.6C680.5 248.6 683.1 247.6 685.9 247.6L686.5 248.2C686.5 250.2 684.7 253.2 681.1 257.2C677.9 261.2 674.3 265 670.3 268.6C666.7 272.2 664.1 274.8 662.5 276.4C660.9 276.8 659.1 277.2 657.1 277.6C655.1 277.6 653.1 278 651.1 278.8L649.3 275.8C640.5 275 633.1 272 627.1 266.8C621.5 261.2 618.7 254 618.7 245.2C618.7 242.4 619.3 237.4 620.5 230.2C621.7 222.6 623.1 215.2 624.7 208C626.7 200.8 628.1 195.8 628.9 193C624.1 196.2 619.5 201.2 615.1 208C610.7 214.4 606.7 219.8 603.1 224.2C599.1 225.8 594.9 230 590.5 236.8C586.5 243.2 582.3 250.4 577.9 258.4C573.5 266 569.1 272.8 564.7 278.8C560.3 284.4 555.7 287.2 550.9 287.2ZM690.564 305.2C684.164 305.2 678.964 302.4 674.964 296.8C670.964 291.6 668.964 285.8 668.964 279.4C668.964 274.6 670.364 267.4 673.164 257.8C676.364 247.8 680.164 237.4 684.564 226.6C688.964 215.4 693.564 205.4 698.364 196.6C703.164 187.8 707.564 182 711.564 179.2C717.164 170.4 722.164 162.2 726.564 154.6C720.164 155.8 713.764 157.2 707.364 158.8C700.964 160 694.964 161.8 689.364 164.2C686.564 167.8 683.364 169.6 679.764 169.6C678.564 168.8 677.164 168 675.564 167.2C673.964 166.4 672.564 165.4 671.364 164.2L671.964 163H671.364V161.8C671.364 159.8 670.964 158 670.164 156.4C669.764 154.4 669.364 152.6 668.964 151C668.564 150.6 668.364 149.6 668.364 148C668.364 142.8 670.764 139.4 675.564 137.8C680.764 136.2 685.964 135.4 691.164 135.4C698.764 135.4 703.964 136 706.764 137.2L712.764 136H727.764C730.564 136 733.164 136 735.564 136C737.964 136 740.364 135.8 742.764 135.4L745.164 131.8L744.564 129.4C745.764 126.6 748.364 122 752.364 115.6C756.364 109.2 760.564 102.4 764.964 95.2C769.364 88 773.164 81.8 776.364 76.6C779.964 71 781.764 68.2 781.764 68.2C781.764 65.8 783.764 64.4 787.764 64C791.764 63.6 794.364 63.4 795.564 63.4C799.964 63.4 805.964 64.8 813.564 67.6C821.164 70 824.964 74.2 824.964 80.2C824.964 83.8 823.564 86.8 820.764 89.2C817.964 91.2 814.964 92.6 811.764 93.4V94C811.764 96.4 809.964 99.2 806.364 102.4C803.164 105.6 799.364 108.4 794.964 110.8C790.564 113.2 787.164 114.8 784.764 115.6C783.564 116 781.964 117.6 779.964 120.4C778.364 122.8 777.164 124.6 776.364 125.8V128.2C774.764 129.4 772.964 130.8 770.964 132.4C769.364 133.6 767.964 135.2 766.764 137.2C768.764 137.6 770.764 137.8 772.764 137.8C774.764 137.8 776.764 137.8 778.764 137.8C781.964 137.8 784.964 137.8 787.764 137.8C790.964 137.8 793.964 138 796.764 138.4L815.364 140.8C810.564 144.8 805.164 147.2 799.164 148C793.164 148.4 786.964 148.6 780.564 148.6C774.564 148.2 768.764 149.2 763.164 151.6C760.364 152.4 756.564 154.8 751.764 158.8C747.364 162.8 743.364 167.2 739.764 172C736.164 176.4 734.364 180.2 734.364 183.4L720.564 202C716.564 204 714.564 207 714.564 211C714.564 215 712.364 217 707.964 217L699.564 236.2C699.164 238.6 698.564 242.4 697.764 247.6C697.364 252.4 695.764 255.2 692.964 256C692.964 261.2 692.764 266.4 692.364 271.6C691.964 276.4 691.764 281.2 691.764 286L692.964 288.4H697.764C705.764 280.4 713.964 272.8 722.364 265.6C731.164 258 739.364 250 746.964 241.6L749.964 240.4H751.164L754.764 235.6L757.164 234.4L756.564 233.8L760.164 230.8C763.364 224.8 768.564 219.8 775.764 215.8L776.364 217C776.364 219 773.764 223.4 768.564 230.2C763.364 236.6 756.764 244.2 748.764 253C741.164 261.4 733.164 269.6 724.764 277.6C716.764 285.6 709.564 292.2 703.164 297.4C696.764 302.6 692.564 305.2 690.564 305.2Z" fill="#EE6C4D"/>
<path d="M350.5 519.5C348.5 516.5 347.5 513.5 347.5 510.5C347.5 508.167 348 506 349 504C349.667 502 350.5 500.167 351.5 498.5H352L351.5 498C353.833 494.667 357.5 490.333 362.5 485C367.833 479.667 373.5 474.833 379.5 470.5C385.5 466.167 390.333 463.833 394 463.5L397 461.5C398.667 458.833 401.167 456.333 404.5 454C408.167 451.333 411.333 449.167 414 447.5L417 448L416.5 446L418 445L416.5 440C413.167 438.667 408.833 437 403.5 435C398.5 433 393.833 430.5 389.5 427.5C385.5 424.167 383.5 420.333 383.5 416C383.5 412.667 386.5 408 392.5 402C398.5 396 405.667 390 414 384C422.667 377.667 430.833 372.333 438.5 368C446.5 363.667 452.167 361.5 455.5 361.5C459.833 359.833 463 357.167 465 353.5C467 349.833 468.833 346.5 470.5 343.5C472.5 340.167 475.167 338.5 478.5 338.5C482.833 338.5 486.5 340.667 489.5 345C492.833 349.333 495.167 353.167 496.5 356.5C496.167 357.833 495.167 359 493.5 360C492.167 361 491.167 362.333 490.5 364C486.5 367.333 483.167 371.5 480.5 376.5C478.167 381.167 475.833 385.833 473.5 390.5L464.5 395.5L463 393.5H462.5C461.167 395.167 459.833 396.667 458.5 398C457.167 399.333 456.167 400.833 455.5 402.5C454.167 403.833 452.833 405.833 451.5 408.5C450.5 410.833 449 412.167 447 412.5L446.5 411.5C448.167 406.167 449.833 400.833 451.5 395.5C453.167 389.833 455 384.333 457 379L458 378.5L459 371C455.667 371 452.5 371.833 449.5 373.5C446.5 375.167 443.167 375.833 439.5 375.5C438.167 376.5 435.833 378.5 432.5 381.5C429.5 384.5 426.5 387.167 423.5 389.5C420.5 391.833 418.167 393.167 416.5 393.5C414.5 397.167 411.5 400.667 407.5 404C403.833 407.333 402 411.333 402 416C402 418 403 419.333 405 420C407 420.333 408.833 420.5 410.5 420.5V423.5L411.5 423L419.5 425L421 423.5C425.333 424.5 430.667 426.167 437 428.5C443.667 430.5 449.5 433.333 454.5 437C459.833 440.667 462.5 445.5 462.5 451.5C462.5 453.833 462 456.167 461 458.5C460 460.833 458.667 463.167 457 465.5L449 473.5L436.5 472.5C434.167 474.167 430.167 475.667 424.5 477C418.833 478 413.5 479 408.5 480C403.833 481 401.5 482.167 401.5 483.5L397 479.5C395.333 482.5 392.833 484 389.5 484C386.167 484 382.833 484 379.5 484C376.5 484 373 485.833 369 489.5C365.333 493.167 362 497.167 359 501.5C356 506.167 354.167 510 353.5 513L350.5 519.5ZM485.469 502C481.135 502 478.302 499.833 476.969 495.5C475.969 491.5 475.469 487.833 475.469 484.5C475.469 482.167 475.969 477.667 476.969 471C478.302 464.333 479.969 458 481.969 452C483.969 445.667 486.135 442.5 488.469 442.5C488.802 438.833 490.135 434.167 492.469 428.5C494.802 422.833 497.802 419.5 501.469 418.5V418C502.135 417 502.969 416 503.969 415C504.969 414 505.969 413 506.969 412L507.469 411V411.5L507.969 404.5C509.635 403.5 510.969 401.833 511.969 399.5C512.969 396.833 514.302 394.833 515.969 393.5L517.469 395C519.802 392.333 522.302 389.667 524.969 387C527.969 384 529.469 380.5 529.469 376.5C531.135 373.833 532.969 371.5 534.969 369.5C537.302 367.167 539.469 364.833 541.469 362.5H542.969C544.635 360.833 546.469 360 548.469 360L550.469 357.5V352L552.469 350.5C554.135 348.167 556.302 344.833 558.969 340.5C561.635 336.167 562.969 332.833 562.969 330.5C562.969 329.5 562.135 329 560.469 329C559.135 329 557.635 329.333 555.969 330C554.302 330.333 553.135 330.5 552.469 330.5V328L577.969 306.5V306C582.302 303 586.469 299.833 590.469 296.5C594.469 292.833 598.635 289.667 602.969 287C606.635 287.667 610.635 288.833 614.969 290.5C619.302 291.833 622.302 294.333 623.969 298V304.5C621.635 306.833 617.635 311 611.969 317C606.302 323 599.802 329.833 592.469 337.5C585.135 344.833 577.802 352.167 570.469 359.5C563.135 366.5 556.635 372.333 550.969 377C545.635 381.667 541.969 384.167 539.969 384.5L533.969 390L536.469 394.5L533.969 399.5C531.302 400.167 528.469 402.333 525.469 406C522.802 409.333 521.469 412.5 521.469 415.5C518.469 416.833 516.469 418.333 515.469 420C514.802 421.667 513.802 423.333 512.469 425C511.469 426.667 508.635 428.333 503.969 430L502.469 432.5V443.5L504.469 445L501.969 444L499.969 448H498.969C497.969 451.333 497.469 454.833 497.469 458.5L499.969 464.5C501.302 462.833 503.969 460.333 507.969 457C511.969 453.333 513.802 450.667 513.469 449L517.469 445C518.469 441.667 520.802 437.5 524.469 432.5C528.469 427.167 532.802 422.333 537.469 418C542.135 413.667 546.135 411.5 549.469 411.5V411L556.969 411.5C561.635 413.833 564.469 417.833 565.469 423.5C566.469 429.167 567.969 435.833 569.969 443.5C572.302 450.833 577.302 458.5 584.969 466.5L592.969 461.5H594.469C595.802 459.833 597.802 458.333 600.469 457C603.469 455.667 605.969 454.5 607.969 453.5L608.469 454C608.469 455.667 605.969 458.5 600.969 462.5C596.302 466.5 591.302 470.167 585.969 473.5C580.635 476.833 576.802 478.833 574.469 479.5L572.969 478.5L567.969 479.5L566.469 477C558.135 476 552.135 473.833 548.469 470.5C544.802 466.833 542.302 462.833 540.969 458.5C539.969 454.167 539.135 450.167 538.469 446.5C537.802 442.833 535.969 440.5 532.969 439.5C530.635 441.833 528.469 444.167 526.469 446.5C524.469 448.833 522.469 451.333 520.469 454C517.469 455.333 514.469 458.5 511.469 463.5C508.802 468.5 506.135 474 503.469 480C501.135 486 498.469 491.167 495.469 495.5C492.469 499.833 489.135 502 485.469 502ZM545.469 335L544.969 333.5L546.469 330L549.469 330.5L550.469 334L545.469 335ZM639.992 478.5C634.992 478.5 630.826 477.333 627.492 475C624.159 472.333 621.159 468.833 618.492 464.5H617.492L617.992 460.5L616.992 461V458L619.492 456H618.492L615.492 453.5H616.492L617.492 451.5V450.5L616.492 448V447H615.492L608.492 443.5V442C606.159 439.667 604.159 437.167 602.492 434.5C601.159 431.5 600.492 428.333 600.492 425C600.492 420.333 602.492 414.833 606.492 408.5C610.826 402.167 615.826 396.5 621.492 391.5C627.492 386.5 632.826 384 637.492 384C639.826 381.667 643.159 380.5 647.492 380.5L648.992 379L651.492 379.5C655.159 377.833 659.159 377.333 663.492 378L663.992 377H691.992C694.659 377 697.992 377.667 701.992 379C706.326 380.333 709.659 381.333 711.992 382C714.992 385.333 718.992 388 723.992 390C728.992 391.667 731.492 395.333 731.492 401C731.492 408 729.492 414.667 725.492 421C721.492 427.333 716.826 432.333 711.492 436H710.992C710.659 437 708.992 438.667 705.992 441C703.326 443 700.326 445.167 696.992 447.5C693.992 449.5 691.992 451 690.992 452L689.492 456.5C687.159 456.5 684.992 457.333 682.992 459C680.992 460.333 679.992 462.167 679.992 464.5C680.659 465.833 682.159 467 684.492 468C686.826 468.667 688.826 469 690.492 469L688.492 470C677.826 470 669.659 470.833 663.992 472.5C658.326 473.833 653.826 475.167 650.492 476.5C647.159 477.833 643.659 478.5 639.992 478.5ZM653.492 465.5C663.826 460.5 670.992 456.667 674.992 454C679.326 451 682.326 448.5 683.992 446.5C685.659 444.167 687.826 441.167 690.492 437.5C693.159 433.833 697.992 428.667 704.992 422V421C703.659 421 702.492 420.833 701.492 420.5C701.826 417.5 702.492 414.667 703.492 412C704.826 409 705.492 405.833 705.492 402.5C705.492 396.5 703.159 391.667 698.492 388C694.159 384 689.159 382 683.492 382C680.492 382 677.326 382.333 673.992 383C670.992 383.667 668.159 384.5 665.492 385.5L658.992 385C653.659 387 647.659 390 640.992 394C634.659 398 629.159 402.833 624.492 408.5C619.826 413.833 617.492 419.833 617.492 426.5C617.492 429.833 618.159 432.667 619.492 435L621.492 435.5V434L623.992 432.5L627.492 425V423L630.492 418.5L631.492 419L632.992 416L635.492 414.5V414C636.492 413.667 637.492 413.333 638.492 413C639.826 412.667 640.992 412.167 641.992 411.5C641.992 408.833 643.159 407.333 645.492 407C647.826 406.333 649.159 404.833 649.492 402.5H652.492L655.992 398.5L657.992 400L662.492 397H666.992V398.5C661.992 399.833 656.492 403.5 650.492 409.5C644.492 415.167 639.492 421.5 635.492 428.5C631.492 435.5 629.659 441.833 629.992 447.5L630.492 456.5C634.159 458.167 637.826 460.167 641.492 462.5C645.159 464.5 649.159 465.5 653.492 465.5ZM638.992 469L641.992 467.5L630.492 462L629.492 462.5L631.492 467L638.992 469ZM641.887 578.5C635.22 578.5 628.553 576.833 621.887 573.5C614.887 570.5 609.053 566.167 604.387 560.5C599.72 554.833 597.387 548.333 597.387 541L598.887 537.5C602.22 541.167 604.72 545.167 606.387 549.5C608.053 553.833 610.387 557.333 613.387 560C616.387 563 621.387 564.5 628.387 564.5C629.72 564.5 631.053 564.333 632.387 564C633.72 564 635.053 563.833 636.387 563.5C638.053 564.167 641.387 562.667 646.387 559C651.387 555.333 657.053 550.667 663.387 545C669.72 539.333 676.053 533.167 682.387 526.5C688.387 520.167 693.553 514.333 697.887 509C701.887 504 704.053 500.5 704.387 498.5C707.053 494.5 709.72 490.167 712.387 485.5C715.387 480.833 718.053 476.333 720.387 472L721.387 472.5L722.887 470.5C725.553 467.5 727.22 464.5 727.887 461.5C728.553 458.5 730.553 455.667 733.887 453C736.553 449 738.887 445 740.887 441C743.22 437 744.387 432.667 744.387 428C744.387 426 744.887 424.167 745.887 422.5C746.887 420.5 747.887 418.667 748.887 417C755.553 406.667 759.887 397.167 761.887 388.5C763.887 379.833 766.387 369.833 769.387 358.5C768.72 356.833 767.72 355.333 766.387 354C765.053 352.667 763.887 351.333 762.887 350H763.887C770.22 350 774.72 351.833 777.387 355.5C780.053 359.167 781.387 363.833 781.387 369.5C781.387 371.5 780.887 375.167 779.887 380.5C778.887 385.5 777.387 391 775.387 397C773.72 403 771.72 408.167 769.387 412.5C767.387 416.833 765.22 419 762.887 419C762.553 421.667 761.887 424.333 760.887 427C760.22 429.333 759.387 431.667 758.387 434C760.053 432.333 761.72 430.333 763.387 428C765.387 425.333 767.553 423.833 769.887 423.5C771.887 421.833 773.22 419.667 773.887 417C774.887 414.333 776.553 412.167 778.887 410.5C779.553 410.5 780.553 410.167 781.887 409.5C783.553 408.5 783.887 407.667 782.887 407L789.887 402.5H792.387C793.053 399.167 795.22 397.167 798.887 396.5C802.887 392.833 805.887 390.333 807.887 389C810.22 387.667 812.553 386.833 814.887 386.5C817.553 385.833 821.387 385.167 826.387 384.5L830.387 386.5C832.053 385.5 833.553 385 834.887 385C839.553 385 842.887 387.833 844.887 393.5C847.22 399.167 848.387 403.833 848.387 407.5C848.387 416.5 846.553 423.167 842.887 427.5C839.22 431.5 835.053 435.167 830.387 438.5C826.053 441.5 822.553 446 819.887 452C813.887 455 808.053 458.833 802.387 463.5C797.72 464.833 793.72 467.333 790.387 471C787.053 474.667 783.053 477.333 778.387 479C770.72 481.333 762.72 483.667 754.387 486C746.387 488 738.22 488.667 729.887 488C728.553 493 725.553 499.333 720.887 507C716.22 515 711.22 522.667 705.887 530C700.553 537.667 696.22 544 692.887 549L683.887 553C682.887 554.333 681.887 555.667 680.887 557C679.553 558.667 678.22 559.833 676.887 560.5H674.887C670.22 565.833 665.553 570.167 660.887 573.5C655.887 576.833 649.553 578.5 641.887 578.5ZM736.387 474C756.387 473 774.72 469 791.387 462C808.387 455 822.553 442.667 833.887 425C836.553 420.667 837.887 416.667 837.887 413C837.887 409.667 836.553 407.333 833.887 406C831.22 404.667 828.387 404 825.387 404C817.053 404 808.387 406.333 799.387 411C790.387 415.333 781.72 421.167 773.387 428.5C765.387 435.5 758.053 443.167 751.387 451.5C745.053 459.5 740.053 467 736.387 474ZM748.387 448.5L749.887 447.5V446.5L749.387 447.5L748.387 448.5Z" fill="#2D3142"/>
</svg>
